<mxfile host="app.diagrams.net" modified="2022-06-02T22:18:00.332Z" agent="5.0 (Windows NT 6.1; Win64; x64) AppleWebKit/537.36 (KHTML, like Gecko) Chrome/102.0.0.0 Safari/537.36" etag="4ub7sy7brq0ZOmOhAsI6" version="18.2.1" type="github">
  <diagram id="vhpuTXRBzaWg03IPp8lz" name="Page-1">
    <mxGraphModel dx="2052" dy="1646" grid="1" gridSize="10" guides="1" tooltips="1" connect="1" arrows="1" fold="1" page="1" pageScale="1" pageWidth="583" pageHeight="827" math="0" shadow="0">
      <root>
        <mxCell id="0" />
        <mxCell id="1" parent="0" />
        <mxCell id="IzZOElxtcOKeKCQpAxpx-167" style="edgeStyle=orthogonalEdgeStyle;rounded=0;orthogonalLoop=1;jettySize=auto;html=1;endArrow=none;endFill=0;entryX=1;entryY=0.5;entryDx=0;entryDy=0;" parent="1" edge="1">
          <mxGeometry relative="1" as="geometry">
            <Array as="points">
              <mxPoint x="270" y="30" />
            </Array>
            <mxPoint x="830" y="16" as="sourcePoint" />
            <mxPoint x="270" y="16" as="targetPoint" />
          </mxGeometry>
        </mxCell>
        <mxCell id="QAp_54iPaRWBQmOovKHh-1" value="WEBSITE" style="swimlane;startSize=20;horizontal=1;containerType=tree;fillColor=#f5f5f5;strokeColor=#666666;fontColor=#333333;" parent="1" vertex="1">
          <mxGeometry x="-40" y="-240" width="540" height="650" as="geometry" />
        </mxCell>
        <mxCell id="IzZOElxtcOKeKCQpAxpx-89" value="CategoryProduct" style="swimlane;fontStyle=1;align=center;verticalAlign=top;childLayout=stackLayout;horizontal=1;startSize=26;horizontalStack=0;resizeParent=1;resizeParentMax=0;resizeLast=0;collapsible=1;marginBottom=0;fillColor=#dae8fc;strokeColor=#6c8ebf;" parent="QAp_54iPaRWBQmOovKHh-1" vertex="1">
          <mxGeometry x="350" y="64" width="162" height="86" as="geometry" />
        </mxCell>
        <mxCell id="IzZOElxtcOKeKCQpAxpx-90" value="- # idCat: Integer" style="text;strokeColor=none;fillColor=none;align=left;verticalAlign=top;spacingLeft=4;spacingRight=4;overflow=hidden;rotatable=0;points=[[0,0.5],[1,0.5]];portConstraint=eastwest;" parent="IzZOElxtcOKeKCQpAxpx-89" vertex="1">
          <mxGeometry y="26" width="162" height="26" as="geometry" />
        </mxCell>
        <mxCell id="IzZOElxtcOKeKCQpAxpx-91" value="- # idProd: Integer" style="text;strokeColor=none;fillColor=none;align=left;verticalAlign=top;spacingLeft=4;spacingRight=4;overflow=hidden;rotatable=0;points=[[0,0.5],[1,0.5]];portConstraint=eastwest;" parent="IzZOElxtcOKeKCQpAxpx-89" vertex="1">
          <mxGeometry y="52" width="162" height="26" as="geometry" />
        </mxCell>
        <mxCell id="IzZOElxtcOKeKCQpAxpx-92" value="" style="line;strokeWidth=1;fillColor=none;align=left;verticalAlign=middle;spacingTop=-1;spacingLeft=3;spacingRight=3;rotatable=0;labelPosition=right;points=[];portConstraint=eastwest;" parent="IzZOElxtcOKeKCQpAxpx-89" vertex="1">
          <mxGeometry y="78" width="162" height="8" as="geometry" />
        </mxCell>
        <mxCell id="IzZOElxtcOKeKCQpAxpx-58" value="Product" style="swimlane;fontStyle=1;align=center;verticalAlign=top;childLayout=stackLayout;horizontal=1;startSize=26;horizontalStack=0;resizeParent=1;resizeParentMax=0;resizeLast=0;collapsible=1;marginBottom=0;fillColor=#dae8fc;strokeColor=#6c8ebf;" parent="QAp_54iPaRWBQmOovKHh-1" vertex="1">
          <mxGeometry x="90" y="60" width="220" height="584" as="geometry" />
        </mxCell>
        <mxCell id="IzZOElxtcOKeKCQpAxpx-65" value="# id : Integer" style="text;strokeColor=none;fillColor=none;align=left;verticalAlign=middle;spacingLeft=4;spacingRight=4;overflow=hidden;points=[[0,0.5],[1,0.5]];portConstraint=eastwest;rotatable=0;" parent="IzZOElxtcOKeKCQpAxpx-58" vertex="1">
          <mxGeometry y="26" width="220" height="30" as="geometry" />
        </mxCell>
        <mxCell id="IzZOElxtcOKeKCQpAxpx-73" value="- name : String" style="text;strokeColor=none;fillColor=none;align=left;verticalAlign=middle;spacingLeft=4;spacingRight=4;overflow=hidden;points=[[0,0.5],[1,0.5]];portConstraint=eastwest;rotatable=0;spacing=1;" parent="IzZOElxtcOKeKCQpAxpx-58" vertex="1">
          <mxGeometry y="56" width="220" height="30" as="geometry" />
        </mxCell>
        <mxCell id="IzZOElxtcOKeKCQpAxpx-67" value="- type: String" style="text;strokeColor=none;fillColor=none;align=left;verticalAlign=middle;spacingLeft=4;spacingRight=4;overflow=hidden;points=[[0,0.5],[1,0.5]];portConstraint=eastwest;rotatable=0;" parent="IzZOElxtcOKeKCQpAxpx-58" vertex="1">
          <mxGeometry y="86" width="220" height="30" as="geometry" />
        </mxCell>
        <mxCell id="IzZOElxtcOKeKCQpAxpx-68" value="- description: String" style="text;strokeColor=none;fillColor=none;align=left;verticalAlign=middle;spacingLeft=4;spacingRight=4;overflow=hidden;points=[[0,0.5],[1,0.5]];portConstraint=eastwest;rotatable=0;" parent="IzZOElxtcOKeKCQpAxpx-58" vertex="1">
          <mxGeometry y="116" width="220" height="30" as="geometry" />
        </mxCell>
        <mxCell id="IzZOElxtcOKeKCQpAxpx-69" value="- prix: double" style="text;strokeColor=none;fillColor=none;align=left;verticalAlign=middle;spacingLeft=4;spacingRight=4;overflow=hidden;points=[[0,0.5],[1,0.5]];portConstraint=eastwest;rotatable=0;" parent="IzZOElxtcOKeKCQpAxpx-58" vertex="1">
          <mxGeometry y="146" width="220" height="30" as="geometry" />
        </mxCell>
        <mxCell id="IzZOElxtcOKeKCQpAxpx-70" value="- image_sm: String" style="text;strokeColor=none;fillColor=none;align=left;verticalAlign=middle;spacingLeft=4;spacingRight=4;overflow=hidden;points=[[0,0.5],[1,0.5]];portConstraint=eastwest;rotatable=0;" parent="IzZOElxtcOKeKCQpAxpx-58" vertex="1">
          <mxGeometry y="176" width="220" height="30" as="geometry" />
        </mxCell>
        <mxCell id="-VuQGzIxq36cozYmlcgi-5" value="- image_md: String" style="text;strokeColor=none;fillColor=none;align=left;verticalAlign=middle;spacingLeft=4;spacingRight=4;overflow=hidden;points=[[0,0.5],[1,0.5]];portConstraint=eastwest;rotatable=0;" vertex="1" parent="IzZOElxtcOKeKCQpAxpx-58">
          <mxGeometry y="206" width="220" height="30" as="geometry" />
        </mxCell>
        <mxCell id="-VuQGzIxq36cozYmlcgi-6" value="- image_lg: String" style="text;strokeColor=none;fillColor=none;align=left;verticalAlign=middle;spacingLeft=4;spacingRight=4;overflow=hidden;points=[[0,0.5],[1,0.5]];portConstraint=eastwest;rotatable=0;" vertex="1" parent="IzZOElxtcOKeKCQpAxpx-58">
          <mxGeometry y="236" width="220" height="30" as="geometry" />
        </mxCell>
        <mxCell id="IzZOElxtcOKeKCQpAxpx-71" value="- stock: String" style="text;strokeColor=none;fillColor=none;align=left;verticalAlign=middle;spacingLeft=4;spacingRight=4;overflow=hidden;points=[[0,0.5],[1,0.5]];portConstraint=eastwest;rotatable=0;" parent="IzZOElxtcOKeKCQpAxpx-58" vertex="1">
          <mxGeometry y="266" width="220" height="30" as="geometry" />
        </mxCell>
        <mxCell id="IzZOElxtcOKeKCQpAxpx-72" value="- planet_number: int" style="text;strokeColor=none;fillColor=none;align=left;verticalAlign=middle;spacingLeft=4;spacingRight=4;overflow=hidden;points=[[0,0.5],[1,0.5]];portConstraint=eastwest;rotatable=0;" parent="IzZOElxtcOKeKCQpAxpx-58" vertex="1">
          <mxGeometry y="296" width="220" height="30" as="geometry" />
        </mxCell>
        <mxCell id="-VuQGzIxq36cozYmlcgi-7" value="- satelite_number: int" style="text;strokeColor=none;fillColor=none;align=left;verticalAlign=middle;spacingLeft=4;spacingRight=4;overflow=hidden;points=[[0,0.5],[1,0.5]];portConstraint=eastwest;rotatable=0;" vertex="1" parent="IzZOElxtcOKeKCQpAxpx-58">
          <mxGeometry y="326" width="220" height="30" as="geometry" />
        </mxCell>
        <mxCell id="-VuQGzIxq36cozYmlcgi-8" value="- star_id: int" style="text;strokeColor=none;fillColor=none;align=left;verticalAlign=middle;spacingLeft=4;spacingRight=4;overflow=hidden;points=[[0,0.5],[1,0.5]];portConstraint=eastwest;rotatable=0;" vertex="1" parent="IzZOElxtcOKeKCQpAxpx-58">
          <mxGeometry y="356" width="220" height="30" as="geometry" />
        </mxCell>
        <mxCell id="-VuQGzIxq36cozYmlcgi-9" value="- atmosphere: enum" style="text;strokeColor=none;fillColor=none;align=left;verticalAlign=middle;spacingLeft=4;spacingRight=4;overflow=hidden;points=[[0,0.5],[1,0.5]];portConstraint=eastwest;rotatable=0;" vertex="1" parent="IzZOElxtcOKeKCQpAxpx-58">
          <mxGeometry y="386" width="220" height="30" as="geometry" />
        </mxCell>
        <mxCell id="-VuQGzIxq36cozYmlcgi-10" value="- life_form: enum" style="text;strokeColor=none;fillColor=none;align=left;verticalAlign=middle;spacingLeft=4;spacingRight=4;overflow=hidden;points=[[0,0.5],[1,0.5]];portConstraint=eastwest;rotatable=0;" vertex="1" parent="IzZOElxtcOKeKCQpAxpx-58">
          <mxGeometry y="416" width="220" height="30" as="geometry" />
        </mxCell>
        <mxCell id="IzZOElxtcOKeKCQpAxpx-63" value="" style="line;strokeWidth=1;fillColor=none;align=left;verticalAlign=middle;spacingTop=-1;spacingLeft=3;spacingRight=3;rotatable=0;labelPosition=right;points=[];portConstraint=eastwest;" parent="IzZOElxtcOKeKCQpAxpx-58" vertex="1">
          <mxGeometry y="446" width="220" height="8" as="geometry" />
        </mxCell>
        <mxCell id="WWp6hSfT_hM4TXbxwVFe-5" value="+ addProduct(): Product" style="text;strokeColor=none;fillColor=none;align=left;verticalAlign=top;spacingLeft=4;spacingRight=4;overflow=hidden;rotatable=0;points=[[0,0.5],[1,0.5]];portConstraint=eastwest;" parent="IzZOElxtcOKeKCQpAxpx-58" vertex="1">
          <mxGeometry y="454" width="220" height="26" as="geometry" />
        </mxCell>
        <mxCell id="WWp6hSfT_hM4TXbxwVFe-8" value="+ updateProduct(): Product" style="text;strokeColor=none;fillColor=none;align=left;verticalAlign=top;spacingLeft=4;spacingRight=4;overflow=hidden;rotatable=0;points=[[0,0.5],[1,0.5]];portConstraint=eastwest;" parent="IzZOElxtcOKeKCQpAxpx-58" vertex="1">
          <mxGeometry y="480" width="220" height="26" as="geometry" />
        </mxCell>
        <mxCell id="WWp6hSfT_hM4TXbxwVFe-9" value="+ deleteProduct(): Boolean" style="text;strokeColor=none;fillColor=none;align=left;verticalAlign=top;spacingLeft=4;spacingRight=4;overflow=hidden;rotatable=0;points=[[0,0.5],[1,0.5]];portConstraint=eastwest;" parent="IzZOElxtcOKeKCQpAxpx-58" vertex="1">
          <mxGeometry y="506" width="220" height="26" as="geometry" />
        </mxCell>
        <mxCell id="WWp6hSfT_hM4TXbxwVFe-10" value="+ getProduct(): List&lt;Product&gt;" style="text;strokeColor=none;fillColor=none;align=left;verticalAlign=top;spacingLeft=4;spacingRight=4;overflow=hidden;rotatable=0;points=[[0,0.5],[1,0.5]];portConstraint=eastwest;" parent="IzZOElxtcOKeKCQpAxpx-58" vertex="1">
          <mxGeometry y="532" width="220" height="26" as="geometry" />
        </mxCell>
        <mxCell id="IzZOElxtcOKeKCQpAxpx-64" value="+ listProductBy(): List&lt;Product&gt;" style="text;strokeColor=none;fillColor=none;align=left;verticalAlign=top;spacingLeft=4;spacingRight=4;overflow=hidden;rotatable=0;points=[[0,0.5],[1,0.5]];portConstraint=eastwest;" parent="IzZOElxtcOKeKCQpAxpx-58" vertex="1">
          <mxGeometry y="558" width="220" height="26" as="geometry" />
        </mxCell>
        <mxCell id="IzZOElxtcOKeKCQpAxpx-171" value="" style="edgeStyle=elbowEdgeStyle;fontSize=12;html=1;endFill=0;startFill=0;endSize=6;startSize=6;dashed=1;dashPattern=1 4;endArrow=none;startArrow=none;rounded=0;exitX=0.5;exitY=1;exitDx=0;exitDy=0;" parent="QAp_54iPaRWBQmOovKHh-1" edge="1" source="IzZOElxtcOKeKCQpAxpx-89">
          <mxGeometry width="160" relative="1" as="geometry">
            <mxPoint x="430" y="177" as="sourcePoint" />
            <mxPoint x="420" y="270" as="targetPoint" />
            <Array as="points">
              <mxPoint x="430" y="230" />
            </Array>
          </mxGeometry>
        </mxCell>
        <mxCell id="IzZOElxtcOKeKCQpAxpx-178" value="*" style="text;html=1;strokeColor=none;fillColor=none;align=center;verticalAlign=middle;whiteSpace=wrap;rounded=0;" parent="QAp_54iPaRWBQmOovKHh-1" vertex="1">
          <mxGeometry x="430" y="180" width="20" height="30" as="geometry" />
        </mxCell>
        <mxCell id="ZNFF3Vfwh-cAoK5ZNlYT-5" value="0..*" style="text;html=1;strokeColor=none;fillColor=none;align=center;verticalAlign=middle;whiteSpace=wrap;rounded=0;" parent="QAp_54iPaRWBQmOovKHh-1" vertex="1">
          <mxGeometry x="322" y="280" width="20" height="20" as="geometry" />
        </mxCell>
        <mxCell id="QAp_54iPaRWBQmOovKHh-7" value="ADMINISTRATION" style="swimlane;startSize=20;horizontal=1;containerType=tree;fillColor=#f5f5f5;strokeColor=#666666;fontColor=#333333;" parent="1" vertex="1">
          <mxGeometry x="550" y="-240" width="510" height="540" as="geometry" />
        </mxCell>
        <mxCell id="IzZOElxtcOKeKCQpAxpx-41" value="CategorySubcategory" style="swimlane;fontStyle=1;align=center;verticalAlign=top;childLayout=stackLayout;horizontal=1;startSize=26;horizontalStack=0;resizeParent=1;resizeParentMax=0;resizeLast=0;collapsible=1;marginBottom=0;fillColor=#dae8fc;strokeColor=#6c8ebf;" parent="QAp_54iPaRWBQmOovKHh-7" vertex="1">
          <mxGeometry x="30" y="100" width="160" height="86" as="geometry" />
        </mxCell>
        <mxCell id="IzZOElxtcOKeKCQpAxpx-42" value="- # idCat: Integer" style="text;strokeColor=none;fillColor=none;align=left;verticalAlign=top;spacingLeft=4;spacingRight=4;overflow=hidden;rotatable=0;points=[[0,0.5],[1,0.5]];portConstraint=eastwest;" parent="IzZOElxtcOKeKCQpAxpx-41" vertex="1">
          <mxGeometry y="26" width="160" height="26" as="geometry" />
        </mxCell>
        <mxCell id="b4m1mrO1sKwiDsh4Uw2V-5" value="- # idSubcat: Integer" style="text;strokeColor=none;fillColor=none;align=left;verticalAlign=top;spacingLeft=4;spacingRight=4;overflow=hidden;rotatable=0;points=[[0,0.5],[1,0.5]];portConstraint=eastwest;" parent="IzZOElxtcOKeKCQpAxpx-41" vertex="1">
          <mxGeometry y="52" width="160" height="26" as="geometry" />
        </mxCell>
        <mxCell id="IzZOElxtcOKeKCQpAxpx-44" value="" style="line;strokeWidth=1;fillColor=none;align=left;verticalAlign=middle;spacingTop=-1;spacingLeft=3;spacingRight=3;rotatable=0;labelPosition=right;points=[];portConstraint=eastwest;" parent="IzZOElxtcOKeKCQpAxpx-41" vertex="1">
          <mxGeometry y="78" width="160" height="8" as="geometry" />
        </mxCell>
        <mxCell id="ZNFF3Vfwh-cAoK5ZNlYT-4" value="*" style="text;html=1;strokeColor=none;fillColor=none;align=center;verticalAlign=middle;whiteSpace=wrap;rounded=0;" parent="QAp_54iPaRWBQmOovKHh-7" vertex="1">
          <mxGeometry x="380" y="120" width="20" height="20" as="geometry" />
        </mxCell>
        <mxCell id="ZNFF3Vfwh-cAoK5ZNlYT-3" value="*" style="text;html=1;strokeColor=none;fillColor=none;align=center;verticalAlign=middle;whiteSpace=wrap;rounded=0;" parent="QAp_54iPaRWBQmOovKHh-7" vertex="1">
          <mxGeometry x="260" y="182" width="20" height="30" as="geometry" />
        </mxCell>
        <mxCell id="ZNFF3Vfwh-cAoK5ZNlYT-12" value="1" style="text;html=1;strokeColor=none;fillColor=none;align=center;verticalAlign=middle;whiteSpace=wrap;rounded=0;" parent="QAp_54iPaRWBQmOovKHh-7" vertex="1">
          <mxGeometry x="387" y="300" width="20" height="30" as="geometry" />
        </mxCell>
        <mxCell id="IzZOElxtcOKeKCQpAxpx-8" value="Category" style="swimlane;fontStyle=1;align=center;verticalAlign=top;childLayout=stackLayout;horizontal=1;startSize=26;horizontalStack=0;resizeParent=1;resizeParentMax=0;resizeLast=0;collapsible=1;marginBottom=0;fillColor=#dae8fc;strokeColor=#6c8ebf;" parent="QAp_54iPaRWBQmOovKHh-7" vertex="1">
          <mxGeometry x="280" y="140" width="181" height="190" as="geometry" />
        </mxCell>
        <mxCell id="IzZOElxtcOKeKCQpAxpx-9" value="# id: Integer" style="text;strokeColor=none;fillColor=none;align=left;verticalAlign=top;spacingLeft=4;spacingRight=4;overflow=hidden;rotatable=0;points=[[0,0.5],[1,0.5]];portConstraint=eastwest;" parent="IzZOElxtcOKeKCQpAxpx-8" vertex="1">
          <mxGeometry y="26" width="181" height="26" as="geometry" />
        </mxCell>
        <mxCell id="IzZOElxtcOKeKCQpAxpx-29" value="- name : String" style="text;strokeColor=none;fillColor=none;align=left;verticalAlign=top;spacingLeft=4;spacingRight=4;overflow=hidden;rotatable=0;points=[[0,0.5],[1,0.5]];portConstraint=eastwest;" parent="IzZOElxtcOKeKCQpAxpx-8" vertex="1">
          <mxGeometry y="52" width="181" height="26" as="geometry" />
        </mxCell>
        <mxCell id="IzZOElxtcOKeKCQpAxpx-10" value="" style="line;strokeWidth=1;fillColor=none;align=left;verticalAlign=middle;spacingTop=-1;spacingLeft=3;spacingRight=3;rotatable=0;labelPosition=right;points=[];portConstraint=eastwest;" parent="IzZOElxtcOKeKCQpAxpx-8" vertex="1">
          <mxGeometry y="78" width="181" height="8" as="geometry" />
        </mxCell>
        <mxCell id="IzZOElxtcOKeKCQpAxpx-11" value="+ addCategory: Category" style="text;strokeColor=none;fillColor=none;align=left;verticalAlign=top;spacingLeft=4;spacingRight=4;overflow=hidden;rotatable=0;points=[[0,0.5],[1,0.5]];portConstraint=eastwest;" parent="IzZOElxtcOKeKCQpAxpx-8" vertex="1">
          <mxGeometry y="86" width="181" height="26" as="geometry" />
        </mxCell>
        <mxCell id="WWp6hSfT_hM4TXbxwVFe-4" value="+ updateCategory: Category" style="text;strokeColor=none;fillColor=none;align=left;verticalAlign=top;spacingLeft=4;spacingRight=4;overflow=hidden;rotatable=0;points=[[0,0.5],[1,0.5]];portConstraint=eastwest;" parent="IzZOElxtcOKeKCQpAxpx-8" vertex="1">
          <mxGeometry y="112" width="181" height="26" as="geometry" />
        </mxCell>
        <mxCell id="WWp6hSfT_hM4TXbxwVFe-3" value="+ deleteCategory: Category" style="text;strokeColor=none;fillColor=none;align=left;verticalAlign=top;spacingLeft=4;spacingRight=4;overflow=hidden;rotatable=0;points=[[0,0.5],[1,0.5]];portConstraint=eastwest;" parent="IzZOElxtcOKeKCQpAxpx-8" vertex="1">
          <mxGeometry y="138" width="181" height="26" as="geometry" />
        </mxCell>
        <mxCell id="IzZOElxtcOKeKCQpAxpx-28" style="edgeStyle=orthogonalEdgeStyle;rounded=0;orthogonalLoop=1;jettySize=auto;html=1;entryX=0;entryY=0.5;entryDx=0;entryDy=0;endArrow=none;endFill=0;" parent="IzZOElxtcOKeKCQpAxpx-8" source="IzZOElxtcOKeKCQpAxpx-8" target="IzZOElxtcOKeKCQpAxpx-9" edge="1">
          <mxGeometry relative="1" as="geometry" />
        </mxCell>
        <mxCell id="WWp6hSfT_hM4TXbxwVFe-24" value="+ listCategory: Category" style="text;strokeColor=none;fillColor=none;align=left;verticalAlign=top;spacingLeft=4;spacingRight=4;overflow=hidden;rotatable=0;points=[[0,0.5],[1,0.5]];portConstraint=eastwest;" parent="IzZOElxtcOKeKCQpAxpx-8" vertex="1">
          <mxGeometry y="164" width="181" height="26" as="geometry" />
        </mxCell>
        <mxCell id="QAp_54iPaRWBQmOovKHh-27" value="1..*" style="text;html=1;strokeColor=none;fillColor=none;align=center;verticalAlign=middle;whiteSpace=wrap;rounded=0;" parent="QAp_54iPaRWBQmOovKHh-7" vertex="1">
          <mxGeometry x="250" y="270" width="30" height="30" as="geometry" />
        </mxCell>
        <mxCell id="QAp_54iPaRWBQmOovKHh-22" value="" style="edgeStyle=elbowEdgeStyle;fontSize=12;html=1;endFill=0;startFill=0;endSize=6;startSize=6;dashed=1;dashPattern=1 4;endArrow=none;startArrow=none;rounded=0;exitX=1.023;exitY=0.962;exitDx=0;exitDy=0;exitPerimeter=0;" parent="1" edge="1">
          <mxGeometry width="160" relative="1" as="geometry">
            <mxPoint x="743.6800000000001" y="-88.98800000000006" as="sourcePoint" />
            <mxPoint x="810" y="-90" as="targetPoint" />
            <Array as="points">
              <mxPoint x="760" y="-90" />
              <mxPoint x="790" y="-101" />
            </Array>
          </mxGeometry>
        </mxCell>
      </root>
    </mxGraphModel>
  </diagram>
</mxfile>
